# exported by https://3dviewer.net
mtllib model.mtl
g obj3
v -0.94655097 6.6e-7 5.74612951
v -0.47059637 0.47150546 5.80834007
v -0.66931164 0.67060447 5.74612951
v 5e-8 0.66680843 5.80834007
v 4e-8 0.94837672 5.74612951
v -0.6546244 0.6558888 5.53892088
v -0.47059739 -0.47150496 5.80834007
v -0.66552466 4.8e-7 5.80834007
v -0.71689272 5.1e-7 6.3815136
v -0.50691903 0.50789827 6.3815136
v 0.66931272 0.67060357 5.74612951
v 0.47059709 0.47150481 5.80834007
v 4e-8 0.92756569 5.53892088
v 5e-8 0.71827561 6.3815136
v -1.32040036 9.1e-7 5.3891139
v -0.93366277 0.93546593 5.3891139
v -0.65462577 -0.65588814 5.53892088
v -0.92578 6.4e-7 5.53892088
v -0.66931307 -0.67060381 5.74612951
v -1.6e-7 -0.66680902 5.80834007
v -0.87190026 0.86370224 7.04362726
v 0.94655102 -1.8e-7 5.74612951
v 0.66552478 -1.2e-7 5.80834007
v 0.65462542 0.6558879 5.53892088
v 0.5069198 0.50789756 6.3815136
v 3e-8 1.32294714 5.3891139
v 6e-8 1.22555089 7.04362726
v -0.46991435 0.47082198 4.94318247
v -2.6e-7 -0.92756629 5.53892088
v 0.66931272 -0.67060405 5.74612951
v -2.7e-7 -0.94837737 5.74612951
v -0.50692016 -0.50789773 6.3815136
v -1.23305488 -0.00988142 7.04362726
v -1.35800707 0.60839969 7.54300833
v -0.62008512 -0.00988207 7.23898602
v -0.43807009 0.43038738 7.23898602
v 0.47059709 -0.47150508 5.80834007
v 0.92578012 -1.8e-7 5.53892088
v 0.71689284 -1.3e-7 6.3815136
v 0.93366414 0.93546468 5.3891139
v 0.87190151 0.86370105 7.04362726
v 5e-8 0.66584206 4.94318247
v -0.67957973 4.8e-7 3.18135643
v -0.48053479 0.48146296 3.18135643
v -0.46991527 -0.47082141 4.94318247
v -0.66456014 4.7e-7 4.94318247
v -0.93366468 -0.93546504 5.3891139
v 0.5069198 -0.50789785 6.3815136
v -1.8e-7 -0.7182762 6.3815136
v -0.87190211 -0.88346589 7.04362726
v -1.32081032 -0.61909491 7.54300833
v 0.65462542 -0.65588844 5.53892088
v 1.32040036 -2.7e-7 5.3891139
v 1.23305488 -0.00988251 7.04362726
v 0.46991503 0.47082135 4.94318247
v -0.43807113 -0.45015177 7.23898602
v 5e-8 0.6808905 3.18135643
v -0.82882452 5.8e-7 2.50991631
v -0.58606672 0.58719862 2.50991631
v -1.7e-7 -0.66584235 4.94318247
v 0.93366414 -0.93546546 5.3891139
v -4e-7 -1.3229481 5.3891139
v 0.87190151 -0.88346606 7.04362726
v -3.4e-7 -1.24531662 7.04362726
v -0.62337035 -1.34443259 7.54300833
v -2.8e-7 -0.63195693 7.23898602
v 0.66456032 -1.3e-7 4.94318247
v 0.48053551 0.4814623 3.18135643
v 5e-8 0.83042336 2.50991631
v 1.38439059 -0.50896639 7.54300833
v -1.0295192 7.1e-7 2.09487343
v -0.72797894 0.72938496 2.09487343
v -0.48053575 -0.48146236 3.18135643
v 0.55539173 -1.30587494 7.54300833
v 0.43807089 -0.45015177 7.23898602
v -0.1787004 0.16955847 7.60936308
v -0.252482 -0.0100703 7.60967207
v 0.46991503 -0.47082165 4.94318247
v 0.67957991 -1.3e-7 3.18135643
v 0.58606756 0.5871979 2.50991631
v 4e-8 1.03150499 2.09487343
v 0.00002135 0.2438271 7.60994148
v -1.28166795 8.7e-7 1.98214054
v -0.90627497 0.90802521 1.98214054
v -0.58606791 -0.5871979 2.50991631
v -1.7e-7 -0.68089092 3.18135643
v 0.48053551 -0.4814626 3.18135643
v -0.1788121 -0.18799737 7.60974455
v 0.82882482 -1.6e-7 2.50991631
v 0.72798014 0.72938401 2.09487343
v 0.43807095 0.4303866 7.23898602
v 0.17874372 0.16955848 7.60936308
v 1e-8 1.28414011 1.98214054
v -0.89445573 0.89618319 1.89308834
v -1.26495326 8.6e-7 1.89308834
v -0.72798038 -0.72938418 2.09487343
v -0.90627652 -0.90802425 1.98214054
v -2.2e-7 -0.83042371 2.50991631
v 0.58606756 -0.58719826 2.50991631
v 0.00002139 -0.2625359 7.61086273
v 1.0295192 -2.1e-7 2.09487343
v 0.62008524 -0.00988252 7.23898602
v 0.25252527 -0.01007036 7.60967207
v 0.90627617 0.90802407 1.98214054
v 1e-8 1.26739287 1.89308834
v -1.89667356 0.00000126 1.12047815
v -1.34114921 1.34373915 1.12047815
v -0.8944574 -0.89618224 1.89308834
v -3e-7 -1.03150547 2.09487343
v -4.1e-7 -1.28414071 1.98214054
v 0.72798014 -0.7293846 2.09487343
v 0.1766787 -0.18933252 7.61079121
v 1.28166807 -2.7e-7 1.98214054
v 0.89445704 0.89618194 1.89308834
v -6e-8 1.90033185 1.12047815
v -1.12687123 1.12904739 0.6439724
v -1.59363878 0.00000106 0.6439724
v -1.34115183 -1.34373772 1.12047815
v -3.9e-7 -1.26739359 1.89308834
v 0.90627617 -0.90802461 1.98214054
v 1.26495314 -2.6e-7 1.89308834
v 1.34115064 1.34373724 1.12047815
v -2e-8 1.59671223 0.6439724
v -1.89087284 0.00000126 0.43646431
v -1.33704746 1.33962941 0.43646431
v -1.12687349 -1.12904632 0.6439724
v -6.8e-7 -1.90033281 1.12047815
v 0.89445704 -0.89618266 1.89308834
v 1.89667332 -4.3e-7 1.12047815
v 1.12687266 1.12904596 0.6439724
v -6e-8 1.89451969 0.43646431
v -2.01044059 0.00000133 0.02952194
v -1.4215945 1.42433977 0.02952194
v -1.33704996 -1.33962798 0.43646431
v -5.4e-7 -1.59671342 0.6439724
v 1.34115064 -1.34373856 1.12047815
v 1.59363854 -3.6e-7 0.6439724
v 1.33704889 1.33962762 0.43646431
v -7e-8 2.01431799 0.02952194
v 1.42159605 -1.42433906 0.02952194
v -7.3e-7 -2.01431942 0.02952194
v -1.42159724 -1.42433822 0.02952194
v -6.8e-7 -1.894521 0.43646431
v 1.12687266 -1.12904692 0.6439724
v 1.89087284 -4.3e-7 0.43646431
v 1.42159605 1.42433786 0.02952194
v 2.01044059 -4.6e-7 0.02952194
v 1.33704889 -1.33962882 0.43646431
v -0.23108239 -0.0091636 8.01931095
v -0.23108239 0.22194044 7.78820658
v -0.32680881 -0.0091636 7.78820658
v -0.23108236 -0.2402676 7.78820658
v 0.00002162 -0.00916362 8.11503696
v -0.16339359 0.15425165 8.01931095
v 0.00002163 0.31766689 7.78820658
v 0.00002164 -0.2402676 8.01931095
v 0.00002163 -0.33599404 7.78820658
v -0.16339354 -0.1725788 8.01931095
v 0.00002164 0.22194044 8.01931095
v 0.23112568 0.22194044 7.78820658
v 0.16343684 -0.1725788 8.01931095
v 0.23112564 -0.2402676 7.78820658
v 0.16343686 0.15425162 8.01931095
v 0.32685208 -0.0091636 7.78820658
v 0.23112567 -0.00916359 8.01931095
v 0.55824006 1.36032271 7.54300833
v -0.57687426 1.34303665 7.54300833
v 1.3937304 0.62854844 7.54300833
v -1.4e-7 0.61219144 7.23898602
vn -0.85415 0 0.52003
vn -0.51791 0.51703 0.68151
vn -0.60437 0.60364 0.51997
vn 0 0.73159 0.68175
vn 0 0.85423 0.5199
vn -0.56325 0.56225 0.60549
vn -0.51791 -0.51703 0.68151
vn -0.73204 0 0.68126
vn -0.91962 0.00166 -0.39281
vn -0.65093 0.65154 -0.3896
vn 0.60437 0.60364 0.51997
vn 0.51791 0.51703 0.68151
vn 0 0.79563 0.60578
vn 0 0.92147 -0.38845
vn -0.99521 0 0.09777
vn -0.70402 0.70343 0.09769
vn -0.56325 -0.56225 0.60549
vn -0.79606 0 0.60521
vn -0.60437 -0.60364 0.51997
vn 0 -0.73158 0.68175
vn -0.69363 0.7108 -0.11682
vn 0.85415 0 0.52003
vn 0.73204 0 0.68126
vn 0.56325 0.56225 0.60549
vn 0.65093 0.65154 -0.3896
vn 0 0.99522 0.09761
vn -0.00771 0.99557 -0.0937
vn -0.60488 0.60381 -0.51917
vn 0 -0.79563 0.60578
vn 0.60437 -0.60364 0.51997
vn 0 -0.85423 0.5199
vn -0.65045 -0.64774 -0.39668
vn -0.99736 -0.00997 -0.0719
vn -0.69923 0.34325 0.62711
vn -0.25391 0.00246 0.96723
vn -0.16782 0.16744 0.97149
vn 0.51791 -0.51703 0.68151
vn 0.79606 0 0.60521
vn 0.91962 0.00165 -0.39281
vn 0.70402 0.70343 0.09769
vn 0.68357 0.72048 -0.11679
vn 0 0.85446 -0.51951
vn -0.99321 0 0.11636
vn -0.7028 0.70178 0.11648
vn -0.60488 -0.60381 -0.51917
vn -0.85488 0 -0.51883
vn -0.70402 -0.70343 0.09769
vn 0.65045 -0.64774 -0.39668
vn 0 -0.91718 -0.39848
vn -0.70478 -0.69636 -0.13551
vn -0.67623 -0.34094 0.65304
vn 0.56325 -0.56225 0.60549
vn 0.99521 0 0.09777
vn 0.99368 0.01857 -0.11069
vn 0.60488 0.60381 -0.51917
vn -0.16176 -0.16305 0.97327
vn 0 0.99318 0.1166
vn -0.94135 0 0.33744
vn -0.66606 0.66506 0.33774
vn 0 -0.85446 -0.51951
vn 0.70402 -0.70343 0.09769
vn 0 -0.99522 0.09761
vn 0.71001 -0.69922 -0.08354
vn 0.00147 -0.99707 -0.07643
vn -0.35316 -0.68127 0.64121
vn -0.00751 -0.2485 0.9686
vn 0.85488 0 -0.51883
vn 0.7028 0.70178 0.11648
vn 0 0.94113 0.33805
vn 0.73268 -0.22887 0.64094
vn -0.64738 0 0.76216
vn -0.45786 0.45713 0.7625
vn -0.7028 -0.70178 0.11648
vn 0.29526 -0.66463 0.68636
vn 0.18045 -0.16662 0.96937
vn -0.69031 0.6874 0.22574
vn -0.97473 -0.00208 0.22338
vn 0.60488 -0.60381 -0.51917
vn 0.99321 0 0.11636
vn 0.66606 0.66506 0.33774
vn 0 0.6466 0.76283
vn 0.00001 0.97441 0.22476
vn -0.91151 0 0.41127
vn -0.6449 0.64418 0.41125
vn -0.66606 -0.66506 0.33774
vn 0 -0.99318 0.1166
vn 0.7028 -0.70178 0.11648
vn -0.6907 -0.68674 0.22655
vn 0.94135 0 0.33744
vn 0.45786 0.45712 0.7625
vn 0.17131 0.16941 0.97054
vn 0.69032 0.6874 0.22571
vn 0 0.91153 0.41124
vn -0.68017 0.67898 0.27632
vn -0.96113 0 0.27609
vn -0.45786 -0.45712 0.7625
vn -0.6449 -0.64418 0.41125
vn 0 -0.94113 0.33805
vn 0.66606 -0.66506 0.33774
vn -0.00094 -0.97438 0.22489
vn 0.64738 0 0.76216
vn 0.24352 0.01039 0.96984
vn 0.97467 -0.00352 0.22362
vn 0.6449 0.64418 0.41125
vn 0 0.961 0.27656
vn -0.99862 0 0.05244
vn -0.70648 0.70579 0.05245
vn -0.68017 -0.67898 0.27632
vn 0 -0.6466 0.76283
vn 0 -0.91153 0.41124
vn 0.45786 -0.45712 0.7625
vn 0.6858 -0.69339 0.22111
vn 0.91151 0 0.41127
vn 0.68017 0.67898 0.27632
vn 0 0.99862 0.05245
vn -0.68733 0.68592 0.23894
vn -0.97107 0 0.23881
vn -0.70648 -0.70579 0.05245
vn 0 -0.961 0.27656
vn 0.6449 -0.64418 0.41125
vn 0.96113 0 0.27609
vn 0.70648 0.70579 0.05245
vn 0 0.971 0.23907
vn -0.83626 0 0.54833
vn -0.59163 0.59082 0.54854
vn -0.68733 -0.68591 0.23894
vn 0 -0.99862 0.05245
vn 0.68017 -0.67898 0.27632
vn 0.99862 0 0.05244
vn 0.68733 0.68591 0.23894
vn 0 0.83598 0.54876
vn -0.85382 0 -0.52056
vn -0.60418 0.60349 -0.52035
vn -0.59163 -0.59082 0.54854
vn 0 -0.971 0.23907
vn 0.70648 -0.70579 0.05245
vn 0.97107 0 0.23881
vn 0.59163 0.59082 0.54854
vn 0 0.85408 -0.52014
vn 0.60418 -0.60348 -0.52035
vn 0 -0.85408 -0.52014
vn -0.60418 -0.60348 -0.52035
vn 0 -0.83598 0.54876
vn 0.68733 -0.68591 0.23894
vn 0.83626 0 0.54833
vn 0.60418 0.60348 -0.52035
vn 0.85382 0 -0.52056
vn 0.59163 -0.59082 0.54854
vn -0.74862 0 0.663
vn -0.70711 0.70711 0
vn -1 0.00011 -0.00043
vn -0.70711 -0.70711 0
vn 0 0 1
vn -0.52935 0.52935 0.663
vn 0 1 0
vn 0 -0.74862 0.663
vn 0 -1 0
vn -0.52935 -0.52935 0.663
vn 0 0.74862 0.663
vn 0.70711 0.70711 0
vn 0.52935 -0.52935 0.663
vn 0.70732 -0.70689 -0.00119
vn 0.52935 0.52935 0.663
vn 1 0.00011 -0.00043
vn 0.74862 0 0.663
vn 0.28803 0.71504 0.63699
vn -0.30784 0.70124 0.64303
vn 0.71702 0.35478 0.60001
vn -0.00048 0.24357 0.96988
usemtl mat0
f 1//1 2//2 3//3
f 3//3 4//4 5//5
f 6//6 1//1 3//3
f 1//1 7//7 8//8
f 2//2 9//9 10//10
f 11//11 4//4 12//12
f 13//13 3//3 5//5
f 4//4 10//10 14//14
f 15//15 6//6 16//16
f 17//17 1//1 18//18
f 19//19 20//20 7//7
f 7//7 9//9 8//8
f 9//9 21//21 10//10
f 22//22 12//12 23//23
f 13//13 11//11 24//24
f 4//4 25//25 12//12
f 16//16 13//13 26//26
f 10//10 27//27 14//14
f 28//28 15//15 16//16
f 15//15 17//17 18//18
f 29//29 19//19 17//17
f 30//30 20//20 31//31
f 20//20 32//32 7//7
f 32//32 33//33 9//9
f 34//34 35//35 36//36
f 22//22 37//37 30//30
f 24//24 22//22 38//38
f 12//12 39//39 23//23
f 40//40 13//13 24//24
f 25//25 27//27 41//41
f 42//42 16//16 26//26
f 34//34 33//33 35//35
f 43//43 28//28 44//44
f 45//45 15//15 46//46
f 47//47 29//29 17//17
f 29//29 30//30 31//31
f 20//20 48//48 49//49
f 49//49 50//50 32//32
f 35//35 33//33 51//51
f 52//52 22//22 30//30
f 37//37 39//39 48//48
f 53//53 24//24 38//38
f 39//39 41//41 54//54
f 42//42 40//40 55//55
f 51//51 56//56 35//35
f 44//44 42//42 57//57
f 58//58 44//44 59//59
f 43//43 45//45 46//46
f 60//60 47//47 45//45
f 61//61 29//29 62//62
f 49//49 63//63 64//64
f 65//65 66//66 56//56
f 53//53 52//52 61//61
f 48//48 54//54 63//63
f 55//55 53//53 67//67
f 51//51 50//50 56//56
f 68//68 42//42 55//55
f 59//59 57//57 69//69
f 70//70 63//63 54//54
f 71//71 59//59 72//72
f 58//58 73//73 43//43
f 73//73 60//60 45//45
f 60//60 61//61 62//62
f 66//66 74//74 75//75
f 76//76 35//35 77//77
f 78//78 53//53 61//61
f 79//79 55//55 67//67
f 80//80 57//57 68//68
f 72//72 69//69 81//81
f 82//82 36//36 76//76
f 83//83 72//72 84//84
f 71//71 85//85 58//58
f 85//85 86//86 73//73
f 87//87 60//60 86//86
f 35//35 88//88 77//77
f 79//79 78//78 87//87
f 89//89 68//68 79//79
f 90//90 69//69 80//80
f 91//91 82//82 92//92
f 84//84 81//81 93//93
f 83//83 94//94 95//95
f 96//96 83//83 97//97
f 96//96 98//98 85//85
f 99//99 86//86 98//98
f 56//56 100//100 88//88
f 89//89 87//87 99//99
f 101//101 80//80 89//89
f 102//102 92//92 103//103
f 81//81 104//104 93//93
f 84//84 105//105 94//94
f 106//106 94//94 107//107
f 108//108 83//83 95//95
f 109//109 97//97 110//110
f 111//111 98//98 109//109
f 66//66 112//112 100//100
f 101//101 99//99 111//111
f 75//75 103//103 112//112
f 90//90 113//113 104//104
f 105//105 104//104 114//114
f 107//107 105//105 115//115
f 106//106 116//116 117//117
f 108//108 106//106 118//118
f 119//119 97//97 108//108
f 120//120 109//109 110//110
f 113//113 111//111 120//120
f 114//114 113//113 121//121
f 105//105 122//122 115//115
f 107//107 123//123 116//116
f 124//124 116//116 125//125
f 126//126 106//106 117//117
f 119//119 118//118 127//127
f 120//120 119//119 128//128
f 113//113 128//128 121//121
f 114//114 129//129 122//122
f 123//123 122//122 130//130
f 125//125 123//123 131//131
f 132//132 125//125 133//133
f 126//126 124//124 134//134
f 135//135 118//118 126//126
f 136//136 119//119 127//127
f 129//129 128//128 136//136
f 130//130 129//129 137//137
f 123//123 138//138 131//131
f 133//133 131//131 139//139
f 140//140 141//141 142//142
f 134//134 132//132 142//142
f 135//135 134//134 143//143
f 136//136 135//135 144//144
f 129//129 144//144 137//137
f 130//130 145//145 138//138
f 131//131 146//146 139//139
f 138//138 147//147 146//146
f 147//147 148//148 140//140
f 140//140 143//143 141//141
f 143//143 142//142 141//141
f 148//148 135//135 143//143
f 145//145 144//144 148//148
f 149//149 150//150 151//151
f 151//151 76//76 77//77
f 152//152 149//149 151//151
f 149//149 153//153 154//154
f 154//154 155//155 150//150
f 152//152 77//77 88//88
f 150//150 82//82 76//76
f 156//156 152//152 157//157
f 158//158 153//153 149//149
f 154//154 153//153 159//159
f 159//159 160//160 155//155
f 100//100 152//152 88//88
f 82//82 160//160 92//92
f 161//161 157//157 162//162
f 156//156 153//153 158//158
f 159//159 153//153 163//163
f 163//163 164//164 160//160
f 112//112 157//157 100//100
f 92//92 164//164 103//103
f 165//165 162//162 164//164
f 161//161 153//153 156//156
f 163//163 153//153 165//165
f 103//103 162//162 112//112
f 165//165 153//153 161//161
f 54//54 102//102 70//70
f 102//102 75//75 70//70
f 70//70 75//75 63//63
f 63//63 75//75 74//74
f 66//66 64//64 74//74
f 64//64 63//63 74//74
f 66//66 65//65 64//64
f 50//50 64//64 65//65
f 50//50 65//65 56//56
f 51//51 33//33 50//50
f 166//166 41//41 27//27
f 167//167 27//27 21//21
f 21//21 33//33 34//34
f 168//168 54//54 41//41
f 36//36 21//21 34//34
f 167//167 21//21 36//36
f 167//167 36//36 169//169
f 169//169 27//27 167//167
f 166//166 27//27 169//169
f 166//166 169//169 91//91
f 91//91 41//41 166//166
f 41//41 91//91 168//168
f 91//91 102//102 168//168
f 54//54 168//168 102//102
f 1//1 8//8 2//2
f 3//3 2//2 4//4
f 6//6 18//18 1//1
f 1//1 19//19 7//7
f 2//2 8//8 9//9
f 11//11 5//5 4//4
f 13//13 6//6 3//3
f 4//4 2//2 10//10
f 15//15 18//18 6//6
f 17//17 19//19 1//1
f 19//19 31//31 20//20
f 7//7 32//32 9//9
f 9//9 33//33 21//21
f 22//22 11//11 12//12
f 13//13 5//5 11//11
f 4//4 14//14 25//25
f 16//16 6//6 13//13
f 10//10 21//21 27//27
f 28//28 46//46 15//15
f 15//15 47//47 17//17
f 29//29 31//31 19//19
f 30//30 37//37 20//20
f 20//20 49//49 32//32
f 32//32 50//50 33//33
f 22//22 23//23 37//37
f 24//24 11//11 22//22
f 12//12 25//25 39//39
f 40//40 26//26 13//13
f 25//25 14//14 27//27
f 42//42 28//28 16//16
f 43//43 46//46 28//28
f 45//45 47//47 15//15
f 47//47 62//62 29//29
f 29//29 52//52 30//30
f 20//20 37//37 48//48
f 49//49 64//64 50//50
f 52//52 38//38 22//22
f 37//37 23//23 39//39
f 53//53 40//40 24//24
f 39//39 25//25 41//41
f 42//42 26//26 40//40
f 44//44 28//28 42//42
f 58//58 43//43 44//44
f 43//43 73//73 45//45
f 60//60 62//62 47//47
f 61//61 52//52 29//29
f 49//49 48//48 63//63
f 53//53 38//38 52//52
f 48//48 39//39 54//54
f 55//55 40//40 53//53
f 68//68 57//57 42//42
f 59//59 44//44 57//57
f 71//71 58//58 59//59
f 58//58 85//85 73//73
f 73//73 86//86 60//60
f 60//60 78//78 61//61
f 76//76 36//36 35//35
f 78//78 67//67 53//53
f 79//79 68//68 55//55
f 80//80 69//69 57//57
f 72//72 59//59 69//69
f 82//82 169//169 36//36
f 83//83 71//71 72//72
f 71//71 96//96 85//85
f 85//85 98//98 86//86
f 87//87 78//78 60//60
f 35//35 56//56 88//88
f 79//79 67//67 78//78
f 89//89 80//80 68//68
f 90//90 81//81 69//69
f 91//91 169//169 82//82
f 84//84 72//72 81//81
f 83//83 84//84 94//94
f 96//96 71//71 83//83
f 96//96 109//109 98//98
f 99//99 87//87 86//86
f 56//56 66//66 100//100
f 89//89 79//79 87//87
f 101//101 90//90 80//80
f 102//102 91//91 92//92
f 81//81 90//90 104//104
f 84//84 93//93 105//105
f 106//106 95//95 94//94
f 108//108 97//97 83//83
f 109//109 96//96 97//97
f 111//111 99//99 98//98
f 66//66 75//75 112//112
f 101//101 89//89 99//99
f 75//75 102//102 103//103
f 90//90 101//101 113//113
f 105//105 93//93 104//104
f 107//107 94//94 105//105
f 106//106 107//107 116//116
f 108//108 95//95 106//106
f 119//119 110//110 97//97
f 120//120 111//111 109//109
f 113//113 101//101 111//111
f 114//114 104//104 113//113
f 105//105 114//114 122//122
f 107//107 115//115 123//123
f 124//124 117//117 116//116
f 126//126 118//118 106//106
f 119//119 108//108 118//118
f 120//120 110//110 119//119
f 113//113 120//120 128//128
f 114//114 121//121 129//129
f 123//123 115//115 122//122
f 125//125 116//116 123//123
f 132//132 124//124 125//125
f 126//126 117//117 124//124
f 135//135 127//127 118//118
f 136//136 128//128 119//119
f 129//129 121//121 128//128
f 130//130 122//122 129//129
f 123//123 130//130 138//138
f 133//133 125//125 131//131
f 142//142 132//132 147//147
f 132//132 133//133 146//146
f 133//133 139//139 146//146
f 146//146 147//147 132//132
f 147//147 140//140 142//142
f 134//134 124//124 132//132
f 135//135 126//126 134//134
f 136//136 127//127 135//135
f 129//129 136//136 144//144
f 130//130 137//137 145//145
f 131//131 138//138 146//146
f 138//138 145//145 147//147
f 147//147 145//145 148//148
f 140//140 148//148 143//143
f 143//143 134//134 142//142
f 148//148 144//144 135//135
f 145//145 137//137 144//144
f 149//149 154//154 150//150
f 151//151 150//150 76//76
f 152//152 158//158 149//149
f 154//154 159//159 155//155
f 152//152 151//151 77//77
f 150//150 155//155 82//82
f 156//156 158//158 152//152
f 159//159 163//163 160//160
f 100//100 157//157 152//152
f 82//82 155//155 160//160
f 161//161 156//156 157//157
f 163//163 165//165 164//164
f 112//112 162//162 157//157
f 92//92 160//160 164//164
f 165//165 161//161 162//162
f 103//103 164//164 162//162
